<?xml version="1.0" encoding="iso-8859-1"?>
<!-- Uploaded to: SVG Repo, www.svgrepo.com, Generator: SVG Repo Mixer Tools -->
<svg version="1.1" id="Layer_1" xmlns="http://www.w3.org/2000/svg" xmlns:xlink="http://www.w3.org/1999/xlink" 
	 viewBox="0 0 512 512" xml:space="preserve">
<g>
	<polyline style="fill:#FFFFFF;" points="176.065,270.529 176.065,388.602 44.408,388.602 44.408,357.255 144.718,357.255 
		144.718,270.529 	"/>
	<rect x="329.665" y="140.632" style="fill:#FFFFFF;" width="137.927" height="52.245"/>
</g>
<polygon style="fill:#B3D8F4;" points="346.384,219.004 61.127,219.004 61.127,68.539 426.841,68.539 426.841,138.547 "/>
<rect x="61.127" y="68.534" style="fill:#FFFFFF;" width="365.714" height="31.347"/>
<rect x="467.592" y="114.51" style="fill:#3D9AE2;" width="36.571" height="104.49"/>
<g>
	<circle style="fill:#FFFFFF;" cx="160.392" cy="219.522" r="52.245"/>
	<circle style="fill:#FFFFFF;" cx="160.392" cy="219.522" r="15.673"/>
</g>
<g>
	<circle style="fill:#B3D8F4;" cx="160.392" cy="219.522" r="20.898"/>
	<path style="fill:#B3D8F4;" d="M23.51,425.174H7.837v-104.49H23.51c11.542,0,20.898,9.356,20.898,20.898v62.694
		C44.408,415.818,35.052,425.174,23.51,425.174z"/>
</g>
<circle style="fill:#3D9AE2;" cx="160.392" cy="372.924" r="36.571"/>
<g>
	<rect x="152.555" y="365.087" style="fill:#FFFFFF;" width="15.673" height="15.673"/>
	<rect x="293.616" y="132.796" style="fill:#FFFFFF;" width="15.673" height="15.673"/>
	<rect x="330.188" y="132.796" style="fill:#FFFFFF;" width="52.245" height="15.673"/>
</g>
<path d="M459.755,106.677v26.123h-25.078V60.703H53.29v166.139h33.97v-15.673H68.963V76.376h350.041V92.05H134.269v15.673h284.735
	v27.579l-75.866,75.866H309.29h-75.766v15.673h75.766h40.339l26.122-26.122h84.004v26.121H512V106.677
	C512,106.677,459.755,106.677,459.755,106.677z M391.425,185.046l36.571-36.571h31.759v36.571H391.425z M496.327,211.167h-20.898
	v-88.816h20.898V211.167z"/>
<path d="M220.473,219.526c0-33.13-26.952-60.082-60.082-60.082s-60.082,26.952-60.082,60.082c0,24.79,15.094,46.119,36.571,55.287
	v60.468c-5.715,3.581-10.558,8.424-14.139,14.139H52.245v-7.837c0-15.845-12.891-28.735-28.735-28.735h-7.837v-18.286H0v156.735
	h15.673v-18.286h7.837c15.844,0,28.735-12.89,28.735-28.735v-7.837h70.498c7.858,12.538,21.791,20.898,37.649,20.898
	c24.487,0,44.408-19.921,44.408-44.408c0-15.857-8.36-29.791-20.898-37.649v-60.468C205.38,265.644,220.473,244.315,220.473,219.526
	z M36.571,404.276c0,7.202-5.859,13.061-13.061,13.061h-7.837v-88.816h7.837c7.202,0,13.061,5.859,13.061,13.061v7.837v47.02
	V404.276z M52.245,380.766v-15.673h64.445c-0.456,2.545-0.706,5.162-0.706,7.837c0,2.675,0.251,5.29,0.706,7.837H52.245z
	 M115.984,219.526c0-24.487,19.921-44.408,44.408-44.408s44.408,19.921,44.408,44.408c0,24.486-19.921,44.408-44.408,44.408
	S115.984,244.012,115.984,219.526z M160.392,401.663c-15.844,0-28.735-12.89-28.735-28.735c0-15.845,12.891-28.735,28.735-28.735
	s28.735,12.89,28.735,28.735C189.127,388.774,176.236,401.663,160.392,401.663z M168.229,329.227
	c-2.545-0.456-5.162-0.706-7.837-0.706s-5.291,0.251-7.837,0.706v-50.148c2.567,0.336,5.18,0.528,7.837,0.528
	s5.269-0.191,7.837-0.528V329.227z"/>
<path d="M189.127,219.526c0-15.845-12.891-28.735-28.735-28.735s-28.735,12.89-28.735,28.735s12.891,28.735,28.735,28.735
	S189.127,235.37,189.127,219.526z M147.331,219.526c0-7.202,5.859-13.061,13.061-13.061s13.061,5.859,13.061,13.061
	c0,7.202-5.859,13.061-13.061,13.061S147.331,226.728,147.331,219.526z"/>
<rect x="97.698" y="92.045" width="15.673" height="15.673"/>
</svg>